/* XPM */
static char *asFaceSelector[] = {
/* columns rows colors chars-per-pixel */
"32 32 169 2",
"   c black",
".  c gray1",
"X  c #040404",
"o  c gray2",
"O  c gray3",
"+  c #090909",
"@  c gray7",
"#  c #1B1B1B",
"$  c gray11",
"%  c #1E1E1E",
"&  c gray12",
"*  c #252525",
"=  c #2C2C2C",
"-  c gray18",
";  c gray19",
":  c gray21",
">  c #373737",
",  c #393939",
"<  c #3A3A3A",
"1  c #3C3C3C",
"2  c gray24",
"3  c #3E3E3E",
"4  c #3F3F3F",
"5  c gray25",
"6  c #434343",
"7  c #444444",
"8  c gray27",
"9  c #464646",
"0  c gray28",
"q  c #494949",
"w  c gray29",
"e  c gray30",
"r  c gray31",
"t  c #505050",
"y  c #515151",
"u  c gray32",
"i  c #535353",
"p  c gray33",
"a  c #555555",
"s  c #565656",
"d  c gray34",
"f  c #585858",
"g  c gray35",
"h  c #5A5A5A",
"j  c #5B5B5B",
"k  c gray36",
"l  c gray37",
"z  c #5F5F5F",
"x  c #606060",
"c  c gray38",
"v  c gray39",
"b  c #656565",
"n  c gray40",
"m  c #676767",
"M  c DimGray",
"N  c #6A6A6A",
"B  c gray42",
"V  c #6D6D6D",
"C  c gray43",
"Z  c #6F6F6F",
"A  c gray44",
"S  c #717171",
"D  c #727272",
"F  c gray45",
"G  c #747474",
"H  c gray46",
"J  c #777777",
"K  c gray47",
"L  c #797979",
"P  c gray48",
"I  c #7B7B7B",
"U  c #7C7C7C",
"Y  c gray49",
"T  c #7E7E7E",
"R  c gray50",
"E  c #808080",
"W  c #818181",
"Q  c #838383",
"!  c #848484",
"~  c gray52",
"^  c #868686",
"/  c gray53",
"(  c #888888",
")  c #898989",
"_  c #8B8B8B",
"`  c gray55",
"'  c #8D8D8D",
"]  c #8E8E8E",
"[  c gray56",
"{  c #909090",
"}  c gray57",
"|  c #929292",
" . c #939393",
".. c gray58",
"X. c #959595",
"o. c gray59",
"O. c #979797",
"+. c #989898",
"@. c gray60",
"#. c #9A9A9A",
"$. c gray61",
"%. c #9D9D9D",
"&. c gray62",
"*. c #9F9F9F",
"=. c #A0A0A0",
"-. c gray63",
";. c #A2A2A2",
":. c gray64",
">. c #A4A4A4",
",. c #A5A5A5",
"<. c gray65",
"1. c #A7A7A7",
"2. c gray66",
"3. c #A9A9A9",
"4. c #AAAAAA",
"5. c gray67",
"6. c gray68",
"7. c #AFAFAF",
"8. c gray69",
"9. c #B2B2B2",
"0. c #B4B4B4",
"q. c gray71",
"w. c #BBBBBB",
"e. c #BCBCBC",
"r. c gray74",
"t. c gray",
"y. c #C0C0C0",
"u. c #C1C1C1",
"i. c gray76",
"p. c gray77",
"a. c #C5C5C5",
"s. c gray78",
"d. c #C8C8C8",
"f. c gray79",
"g. c #CACACA",
"h. c #CBCBCB",
"j. c gray80",
"k. c #CDCDCD",
"l. c #CECECE",
"z. c gray82",
"x. c gray83",
"c. c gray84",
"v. c #D7D7D7",
"b. c #D8D8D8",
"n. c gray85",
"m. c gray86",
"M. c #DDDDDD",
"N. c gray87",
"B. c #DFDFDF",
"V. c #E2E2E2",
"C. c gray89",
"Z. c gray90",
"A. c #E6E6E6",
"S. c #E7E7E7",
"D. c gray91",
"F. c #E9E9E9",
"G. c #EAEAEA",
"H. c gray92",
"J. c gray94",
"K. c gray95",
"L. c #F3F3F3",
"P. c #F6F6F6",
"I. c gray97",
"U. c gray98",
"Y. c #FBFBFB",
"T. c gray99",
"R. c #FDFDFD",
"E. c #FEFEFE",
"W. c gray100",
/* pixels */
"=.=.=.=.=.=.=.=.=.=.=.=.=.=.=.=.=.=.=.=.*.=.=.=.=.=.=.=.=.=.=.=.",
"=.=.=.=.=.=.=.=.=.=.=.=.=.=.=.=.=.=.=.=.*.*.=.=.=.=.=.=.=.=.=.=.",
"=.=.=.=.=.=.=.=.=.=.=.=.=.*.F 4 5 - & e #.*.*.=.=.=.=.=.=.=.=.=.",
"=.=.=.=.=.=.=.=.=.=.=.=.*.B             :  .#.*.=.=.=.=.=.=.=.=.",
"=.=.=.=.=.=.=.=.=.=.=.*.#.o               b [ #.*.=.=.=.=.=.=.=.",
"=.=.=.=.=.=.=.=.=.=.=.*.8                 + H [ *.=.=.=.=.=.=.=.",
"=.=.=.=.=.=.=.=.*. .a 8                     h /  .*.=.=.=.=.=.=.",
"=.=.=.=.=.=.=.=.#.&     + 8 = +             # H [ *.=.=.=.=.=.=.",
"=.=.=.=.=.=.=.*.a       @ I.Y.m.4.F -         i Q  .*.*.=.=.=.=.",
"=.=.=.=.=.=.=.*.z       a W.W.W.W.W.Y.4.o     h L  .*.=.=.=.=.=.",
"=.=.=.=.=.=.*.*./ o   * V.W.W.W.W.W.W.W./   @ e F ) *.=.=.=.=.=.",
"=.=.=.=.=.=.*.#.) :   ) W.W.Z.L.Y.m.W.W.G.  4 e Z [ #.=.=.=.=.=.",
"=.=.=.=.=.=.=.*.[ F o 4.| i z Z.W.b 8 [ L.= < a L | *.=.=.=.=.=.",
"=.=.=.=.=.=.=.*.| B # *.a H w.V.N.u.H h x.q i i T  .*.*.=.=.=.=.",
"=.=.=.=.=.=.=.#.) z.a <.Y.Y.x.B h i.I.V.*.Q W.i.T  .*.*.=.=.=.=.",
"=.=.=.=.=.=.*.L L.W.#.N.W.L.z *.<.B V.W.x.Q W.N.F ) #.=.=.=.=.=.",
"=.=.=.=.=.*.*.H L.W.T i.W.W.Z.4.<.G.W.W.W./ W.m.z T #.=.=.=.=.=.",
"=.=.=.=.=.*.*./ i.W.=.) L.I.9.w.N.#.m.Z.<.Z W.w.a L  .=.=.=.=.=.",
"=.=.=.=.=.=.#.) Q Z.g.N.0. ./ Z.W.u.<.#.l.g.i.v a L  .=.=.=.=.=.",
"=.=.=.=.=.=.*.| H 8 | W.W.Z.| m.N.#.W.L.W.z.< 4 z T  .=.=.=.=.=.",
"=.=.=.=.=.=.*. ./ B [ W.W.Y.g.) =.G.W.W.W.N.: q B ) #.=.=.=.=.=.",
"=.=.=.=.=.=.*.*.| T T Y.W.W.W.W.Y.W.W.W.W.V.4 h L | *.=.=.=.=.=.",
"=.=.=.=.=.=.=.*.*.[ F V.Z.m.u.4.*.=.u.9.g.0.i b /  .=.=.=.=.=.=.",
"=.=.=.=.=.=.=.*.*. .) l.<.4.Z.W.W.W.L.i.#.7.q B ) *.=.=.=.=.=.=.",
"=.=.=.=.=.=.=.=.=.| 7.w.Z.W.W.W.W.W.W.W.*.i.a B ) *.=.=.=.=.=.=.",
"=.=.=.=.=.=.=.=.*.) l.l.l.W.W.W.W.W.W.W.Q Z.v b / #.=.=.=.=.=.=.",
"=.=.=.=.=.=.=.=.*.Q 4.W.w.W.W.W.W.W.W.I.#.u.8 b / #.*.=.=.=.=.=.",
"=.=.=.=.=.=.=.=.*.| Z =.u.G.W.W.W.W.W.Z.) 4 8 B / #.*.*.=.=.=.=.",
"=.=.=.=.=.=.=.=.*. .T i 4 h Y.W.W.W.W.*.= < a F [ #.=.=.=.=.=.=.",
"=.=.=.=.=.=.=.=.=. .) Z a 4 h g.G.G.=.< 4 e B /  .*.=.=.=.=.=.=.",
"=.=.=.=.=.=.=.=.*.*.| / H v i 5 < : < 5 i Z Q | *.*.=.=.=.=.=.=.",
"=.=.=.=.=.=.=.=.*.*.*. .[ Q F v a i a v F /  .*.*.=.=.=.=.=.=.=."
};
