/* XPM */
static char *asFace[] = {
/* columns rows colors chars-per-pixel */
"32 32 128 2",
"   c gray32",
".  c #555555",
"X  c #565656",
"o  c #585858",
"O  c gray35",
"+  c #5A5A5A",
"@  c #5B5B5B",
"#  c gray36",
"$  c #5D5D5D",
"%  c gray37",
"&  c #606060",
"*  c gray38",
"=  c gray39",
"-  c #646464",
";  c #656565",
":  c gray40",
">  c #676767",
",  c #686868",
"<  c DimGray",
"1  c gray42",
"2  c #6C6C6C",
"3  c #6D6D6D",
"4  c gray43",
"5  c #6F6F6F",
"6  c gray44",
"7  c #727272",
"8  c gray45",
"9  c #747474",
"0  c #767676",
"q  c #777777",
"w  c gray47",
"e  c #797979",
"r  c gray48",
"t  c #7B7B7B",
"y  c #7C7C7C",
"u  c gray49",
"i  c gray50",
"p  c #818181",
"a  c gray51",
"s  c #838383",
"d  c #848484",
"f  c gray52",
"g  c #868686",
"h  c gray53",
"j  c #888888",
"k  c #898989",
"l  c gray54",
"z  c #8B8B8B",
"x  c gray55",
"c  c #8D8D8D",
"v  c #8E8E8E",
"b  c gray56",
"n  c #909090",
"m  c gray57",
"M  c #929292",
"N  c #939393",
"B  c gray58",
"V  c #959595",
"C  c gray59",
"Z  c #979797",
"A  c #989898",
"S  c gray60",
"D  c #9A9A9A",
"F  c #9B9B9B",
"G  c gray61",
"H  c #9D9D9D",
"J  c gray62",
"K  c #9F9F9F",
"L  c #A0A0A0",
"P  c gray63",
"I  c gray64",
"U  c #A4A4A4",
"Y  c #A7A7A7",
"T  c gray66",
"R  c #AAAAAA",
"E  c gray67",
"W  c #AEAEAE",
"Q  c #B2B2B2",
"!  c gray70",
"~  c gray71",
"^  c #B6B6B6",
"/  c #B7B7B7",
"(  c gray72",
")  c #BBBBBB",
"_  c gray74",
"`  c gray",
"'  c gray75",
"]  c #C1C1C1",
"[  c gray76",
"{  c #C3C3C3",
"}  c gray77",
"|  c #C5C5C5",
" . c #C6C6C6",
".. c gray78",
"X. c #C8C8C8",
"o. c gray79",
"O. c #CBCBCB",
"+. c gray80",
"@. c #CECECE",
"#. c gray82",
"$. c gray83",
"%. c #D5D5D5",
"&. c gray84",
"*. c #D7D7D7",
"=. c #D8D8D8",
"-. c gray85",
";. c gray86",
":. c #DDDDDD",
">. c gray87",
",. c gray88",
"<. c #E1E1E1",
"1. c gray89",
"2. c #E4E4E4",
"3. c gray90",
"4. c #E9E9E9",
"5. c #EAEAEA",
"6. c gray92",
"7. c #ECECEC",
"8. c #EEEEEE",
"9. c #EFEFEF",
"0. c #F1F1F1",
"q. c gray95",
"w. c #F4F4F4",
"e. c gray96",
"r. c #F6F6F6",
"t. c gray97",
"y. c #F8F8F8",
"u. c gray100",
/* pixels */
"L L L L L L L L L L L L L L L L L L L L L L L L L L L L L L L L ",
"L L L L L L L L L L L L L L L L L L L L L L L L L L L L L L L L ",
"L L L L L L L L L L L L L L L L L L L L L L L L L L L L L L L L ",
"L L L L L L L L L L L L L L L L L L L L L L L L L L L L L L L L ",
"L L L L L L L L L L L L L L L L L L L L L L L L L L L L L L L L ",
"L L L L L L L L L L L L L L L L L L L L L L L L L L L L L L L L ",
"L L L L L L L L L L L L L L L L L L L L L L L L L L L L L L L L ",
"L L L L L L L L L L L L L L L L L L L L L L L L L L L L L L L L ",
"L L L L L L L L L L L L L L L L L L L L L L L L L L L L L L L L ",
"L L L L L L L L L L L L L L L L L L L L L L L L L L L L L L L L ",
"L L L L L L L L L K L L L L L L L L L L L L L L L L L L L L L L ",
"K u.u.u.u.u.u.! D K K L L L L L L L L L L L L L L L L L L L L L ",
"K u.t.+.O.O.+.V M D K L L L L L L L L L L L L L L L L L L L L L ",
"V u.=.= = : 3 w z V K L L L L L L L L L L L L L L L L L L L L L ",
"V u.$.o # , 8 y z V K L L L L L L L L L L L L K L L L L L L L L ",
"M u.$.# , y f z M O.0.u.y.+.D K K K  .0.u.y. .D K R 3.u.0.' D K ",
"M u.$.: w v D D D t.#._ :.u.' V D :.u.,._  ./ v K y.3./ $.u.R V ",
"M u.u.u.u.u.0.V V M s 8 , 4.3.s W u. .0 3 3 0 f #.t.z 0 3 8.:.z ",
"V u.8.U W / / z M v y M K ,.u.8 +.u.f , , 8 w f 8.3.R L U $.t.0 ",
"M u.$.  o : 0 y v ' t.u.u.u.u.: =.u., , 0 s z z u.u.u.u.u.u.u., ",
"M u.$.X # 3 w f / u. .v 3 ' u.o ' u.3 8 f V D M t.O.o # = = o , ",
"V u.$.# 3 y v v ,.u.0 3 , $.u.X V u./ 0 v K K V #.t.= o : : , 8 ",
"M u.$.: y M D D ' u.+.W =.u.u.o = $.u.=.' +.O.M V t.4./ ! O.R s ",
"V u.$., y V K D z  .u.t.' R u.: : 8 / t.u.8.' z y z #.u.u.3.L z ",
"V y , 3 f D K K v 0 = = : = # : 8 0 3 : , 8 w s s 0 3 , 3 0 y z ",
"V z w w z D L D M s 8 3 3 , , 8 s f s 8 3 3 0 s z z w 8 3 8 w z ",
"K V v v V K L K K M z f s f f z M V M z s s z v V V v f s s z M ",
"K D D D D K L L K D D V V V D D D K K D V M V D K D K V M V V D ",
"L L L L L L L L L L L L L L L L L L L L L L L L L L L L L L L L ",
"L L L L L L L L L L L L L L L L L L L L L L L L L L L L L L L L ",
"L L L L L L L L L L L L L L L L L L L L L L L L L L L L L L L L ",
"L L L L L L L L L L L L L L L L L L L L L L L L L L L L L L L L "
};
